<svg xmlns="http://www.w3.org/2000/svg" xmlns:svg="http://www.w3.org/2000/svg" id="svg986" width="287.664" height="36.355" version="1.1" viewBox="0 0 76.111 9.619"><metadata id="metadata983"/><g id="layer1" transform="translate(-48.12296,-137.22026)" style="display:none"><circle style="opacity:.9;fill:#1a1a1a;fill-opacity:1;stroke:none;stroke-width:.26458332;stroke-opacity:1" id="path1694" cx="63.995" cy="141.964" r="4.677"/><text xml:space="preserve" style="font-style:normal;font-variant:normal;font-weight:400;font-stretch:normal;font-size:6.3499999px;line-height:1.25;font-family:'Roboto Condensed';-inkscape-font-specification:'Roboto Condensed, Normal';font-variant-ligatures:normal;font-variant-caps:normal;font-variant-numeric:normal;font-feature-settings:normal;text-align:start;letter-spacing:0;word-spacing:0;writing-mode:lr-tb;text-anchor:start;fill:#000;fill-opacity:1;stroke:none;stroke-width:.26458332" id="text1698" x="62.235" y="144.127"><tspan id="tspan1696" x="62.235" y="144.127" style="stroke-width:.26458332">A</tspan></text><circle id="circle1580" cx="79.87" cy="141.964" r="4.677" style="opacity:.9;fill:#1a1a1a;fill-opacity:1;stroke:none;stroke-width:.26458332;stroke-opacity:1"/><text id="text1584" x="78.11" y="144.127" style="font-style:normal;font-variant:normal;font-weight:400;font-stretch:normal;font-size:6.3499999px;line-height:1.25;font-family:'Roboto Condensed';-inkscape-font-specification:'Roboto Condensed, Normal';font-variant-ligatures:normal;font-variant-caps:normal;font-variant-numeric:normal;font-feature-settings:normal;text-align:start;letter-spacing:0;word-spacing:0;writing-mode:lr-tb;text-anchor:start;fill:#000;fill-opacity:1;stroke:none;stroke-width:.26458332" xml:space="preserve"><tspan style="stroke-width:.26458332" id="tspan1582" x="78.11" y="144.127">B</tspan></text><circle style="opacity:.9;fill:#1a1a1a;fill-opacity:1;stroke:none;stroke-width:.26458332;stroke-opacity:1" id="circle1586" cx="92.041" cy="141.964" r="4.677"/><text xml:space="preserve" style="font-style:normal;font-variant:normal;font-weight:400;font-stretch:normal;font-size:6.3499999px;line-height:1.25;font-family:'Roboto Condensed';-inkscape-font-specification:'Roboto Condensed, Normal';font-variant-ligatures:normal;font-variant-caps:normal;font-variant-numeric:normal;font-feature-settings:normal;text-align:start;letter-spacing:0;word-spacing:0;writing-mode:lr-tb;text-anchor:start;fill:#000;fill-opacity:1;stroke:none;stroke-width:.26458332" id="text1590" x="90.28" y="144.127"><tspan id="tspan1588" x="90.28" y="144.127" style="stroke-width:.26458332">X</tspan></text><circle id="circle1592" cx="104.741" cy="141.964" r="4.677" style="opacity:.9;fill:#1a1a1a;fill-opacity:1;stroke:none;stroke-width:.26458332;stroke-opacity:1"/><text id="text1596" x="102.98" y="144.127" style="font-style:normal;font-variant:normal;font-weight:400;font-stretch:normal;font-size:6.3499999px;line-height:1.25;font-family:'Roboto Condensed';-inkscape-font-specification:'Roboto Condensed, Normal';font-variant-ligatures:normal;font-variant-caps:normal;font-variant-numeric:normal;font-feature-settings:normal;text-align:start;letter-spacing:0;word-spacing:0;writing-mode:lr-tb;text-anchor:start;fill:#000;fill-opacity:1;stroke:none;stroke-width:.26458332" xml:space="preserve"><tspan style="stroke-width:.26458332" id="tspan1594" x="102.98" y="144.127">Y</tspan></text></g><g id="g1622" transform="translate(-48.12296,-137.22026)"><path style="opacity:1;fill:#000;fill-opacity:1;stroke:none;stroke-width:.26458332;stroke-opacity:1" id="circle1598" d="m 52.800194,137.28692 a 4.6772165,4.6772165 0 0 0 -4.677234,4.67724 4.6772165,4.6772165 0 0 0 4.677234,4.67723 4.6772165,4.6772165 0 0 0 4.677234,-4.67723 4.6772165,4.6772165 0 0 0 -4.677234,-4.67724 z m -0.173116,2.32596 h 0.486792 l 1.457275,4.51445 h -0.58291 l -0.356567,-1.17822 H 52.10618 l -0.350367,1.17822 h -0.58291 z m 0.241846,0.79375 -0.613916,2.05259 h 1.230932 z"/><path style="opacity:1;fill:#000;fill-opacity:1;stroke:none;stroke-width:.26458332;stroke-opacity:1" id="circle1604" d="m 66.382135,137.28692 a 4.6772165,4.6772165 0 0 0 -4.677233,4.67724 4.6772165,4.6772165 0 0 0 4.677233,4.67723 4.6772165,4.6772165 0 0 0 4.677235,-4.67723 4.6772165,4.6772165 0 0 0 -4.677235,-4.67724 z m -1.273823,2.32596 h 1.286742 c 0.411345,0 0.720371,0.10025 0.927076,0.30076 0.208773,0.2005 0.313159,0.50126 0.313159,0.90227 0,0.21084 -0.05271,0.39687 -0.158129,0.5581 -0.10542,0.16123 -0.248046,0.28629 -0.427881,0.37517 0.206706,0.062 0.370004,0.18914 0.489892,0.38137 0.121957,0.19224 0.182935,0.42375 0.182935,0.69454 0,0.40514 -0.111622,0.72347 -0.334864,0.95498 -0.221173,0.23151 -0.537435,0.34726 -0.94878,0.34726 h -1.33015 z m 0.567406,0.48989 v 1.43557 h 0.728639 c 0.196371,0 0.354499,-0.0661 0.47439,-0.19844 0.121954,-0.13229 0.182933,-0.30799 0.182933,-0.52709 0,-0.24805 -0.05478,-0.42789 -0.16433,-0.53951 -0.109553,-0.11368 -0.276987,-0.17053 -0.502296,-0.17053 z m 0,1.91306 v 1.62471 h 0.775148 c 0.214973,0 0.385505,-0.0703 0.511595,-0.21084 0.126093,-0.14263 0.189138,-0.3421 0.189138,-0.59841 0,-0.54364 -0.229444,-0.81546 -0.68833,-0.81546 z"/><path style="opacity:1;fill:#000;fill-opacity:1;stroke:none;stroke-width:.26458332;stroke-opacity:1" id="circle1610" d="m 79.964081,137.28692 a 4.6772165,4.6772165 0 0 0 -4.677233,4.67724 4.6772165,4.6772165 0 0 0 4.677233,4.67723 4.6772165,4.6772165 0 0 0 4.677235,-4.67723 4.6772165,4.6772165 0 0 0 -4.677235,-4.67724 z m -1.524971,2.32596 h 0.663527 l 0.85576,1.73013 0.849562,-1.73013 h 0.666625 l -1.175123,2.23862 1.199928,2.27583 h -0.672828 l -0.868164,-1.76113 -0.871265,1.76113 h -0.672827 l 1.20613,-2.27583 z"/><path style="opacity:1;fill:#000;fill-opacity:1;stroke:none;stroke-width:.26458332;stroke-opacity:1" id="circle1616" d="m 93.546026,137.28692 a 4.6772165,4.6772165 0 0 0 -4.677233,4.67724 4.6772165,4.6772165 0 0 0 4.677233,4.67723 4.6772165,4.6772165 0 0 0 4.677235,-4.67723 4.6772165,4.6772165 0 0 0 -4.677235,-4.67724 z m -1.667598,2.32596 h 0.644922 l 0.923976,2.26653 0.923975,-2.26653 h 0.641821 l -1.283645,2.83083 v 1.68362 H 93.16207 v -1.68362 z"/></g></svg>